M48
;Layer_Color=9474304
;FILE_FORMAT=2:5
INCH,LZ
;TYPE=PLATED
T01F00S00C0.01200
T03F00S00C0.04331
T04F00S00C0.06000
T05F00S00C0.12598
T06F00S00C0.13386
;TYPE=NON_PLATED
T07F00S00C0.02559
%
T01
X0194Y00095
X0205Y0009
X0207Y0023
Y0027
X0211
Y0023
X02215Y00235
X02255Y00245
X0231Y00275
X02405
X02425Y00125
X02275
X0229Y0036
X0228Y00427
X02275Y00475
X02145Y0058
X02095Y00665
X02015Y00675
X019306
X01875
Y00625
X0192Y0058
X01895Y00505
X01925Y0045
Y00325
Y0025
X01975
X0246Y004
X0259Y0055724
X02575Y00675
X0273Y0068
X0272126Y006313
X0273Y0051
X0278Y0036
X028Y0074
X02745Y00825
X0264Y0088
X02632Y0092
X02425Y00975
X02375
X0237Y0089
Y008
X02425Y00825
X0246Y0073
X0223Y0072
X0226Y008
Y0089
X0229Y00955
X0202197Y0093197
X0193Y00895
X0187Y00875
X0214Y00745
X01835Y00625
X01775Y0064
X01735
X017Y0065
X0167Y0064
Y00605
X016Y006
Y00575
Y00475
Y0045
X0145Y00495
X01375Y00395
Y00365
X01275Y00325
Y0045
Y00575
Y007
Y00825
Y0095
X01145Y0099
X01075Y01025
Y009
X0114Y0088
X01075Y00775
Y0065
Y00525
Y00375
X01025
X00975
X00925
Y00325
X00975
X01025
X01075
X00875Y00225
Y00125
X008Y00425
X006
X0060451Y0027321
X00475Y00475
X0045Y00625
Y0075
Y00875
Y01
X014Y00875
X016Y0085
Y00825
Y00725
Y007
Y0095
Y00975
X0185Y009
Y00505
X0186Y00095
X00225Y0005
X0025Y00375
X0005Y00275
Y0075
X00175Y00675
X002Y01075
Y0135
X0005Y012
X001Y01575
X00175Y0175
X0055Y01725
X006Y01775
X0075Y01675
X0085
X009Y01725
Y01775
Y01825
X00975
X0105
Y01775
X0107Y0168
X01075Y015
Y013
Y0115
X01275Y012
Y01075
X013Y0135
Y014
X01375Y0135
X0145Y01375
Y01425
Y01475
X01375
X013Y01525
X0128Y0169
X0126Y0184
X0118
X0165Y01775
Y017
X01625Y01575
X0185Y017
Y0175
Y018
Y0135
Y0125
X016Y01225
Y012
Y011
Y01075
X00825Y015
X00675
X0045
Y01375
Y0125
Y01125
X0192Y01135
Y01055
X0235Y0115894
X0238Y0115938
X02375Y0122
Y01255
X0237Y01335
X02415
X0245Y01325
X02325Y01335
X0232Y0139
Y0142
X02375
Y01525
X02325
X02265Y01565
X02195Y0145
X02175Y01395
X02105Y0146
X02075
X02125Y0165
Y017
Y0175
X02
Y017
X01925
Y018
X02
X02375Y0165
X02625
Y016
X0263493Y01567
X0259Y0146
X0251
X02775Y01475
X028Y015
X0253Y01135
X0249
X0245
X0248Y011
T03
X027Y00925
Y01025
Y01125
Y01225
Y01325
T04
X0065Y0047756
Y0059567
Y0071378
Y0083189
Y0095
X0074843Y0089095
X0086654
Y0100906
X0074843
Y0077284
X0086654
Y0065472
Y0053661
X0074843
Y0065472
X0096496Y0059567
Y0047756
Y0071378
Y0083189
Y0095
Y0106811
Y0118622
Y0130433
Y0142244
X0086654Y0136339
Y0124528
Y0112716
X0074843
Y0124528
Y0136339
X0065Y0142244
Y0130433
Y0118622
Y0106811
T05
X02725Y00175
X00725
X02725Y01725
T06
X0039409Y0019213
Y0170787
T07
X0223622Y0027402
X0246378
M30
