G04*
G04 #@! TF.GenerationSoftware,Altium Limited,Altium Designer,24.2.2 (26)*
G04*
G04 Layer_Physical_Order=3*
G04 Layer_Color=16440176*
%FSLAX44Y44*%
%MOMM*%
G71*
G04*
G04 #@! TF.SameCoordinates,45DB349C-2E0C-49CB-BE1D-D3AD2B71E69A*
G04*
G04*
G04 #@! TF.FilePolarity,Positive*
G04*
G01*
G75*
%ADD18C,1.5240*%
%ADD86C,0.6500*%
G04:AMPARAMS|DCode=87|XSize=1mm|YSize=2.1mm|CornerRadius=0.5mm|HoleSize=0mm|Usage=FLASHONLY|Rotation=0.000|XOffset=0mm|YOffset=0mm|HoleType=Round|Shape=RoundedRectangle|*
%AMROUNDEDRECTD87*
21,1,1.0000,1.1000,0,0,0.0*
21,1,0.0000,2.1000,0,0,0.0*
1,1,1.0000,0.0000,-0.5500*
1,1,1.0000,0.0000,-0.5500*
1,1,1.0000,0.0000,0.5500*
1,1,1.0000,0.0000,0.5500*
%
%ADD87ROUNDEDRECTD87*%
G04:AMPARAMS|DCode=88|XSize=1mm|YSize=1.8mm|CornerRadius=0.5mm|HoleSize=0mm|Usage=FLASHONLY|Rotation=0.000|XOffset=0mm|YOffset=0mm|HoleType=Round|Shape=RoundedRectangle|*
%AMROUNDEDRECTD88*
21,1,1.0000,0.8000,0,0,0.0*
21,1,0.0000,1.8000,0,0,0.0*
1,1,1.0000,0.0000,-0.4000*
1,1,1.0000,0.0000,-0.4000*
1,1,1.0000,0.0000,0.4000*
1,1,1.0000,0.0000,0.4000*
%
%ADD88ROUNDEDRECTD88*%
%ADD91C,0.2540*%
%ADD94C,4.8900*%
%ADD95C,1.6500*%
%ADD96R,1.6500X1.6500*%
%ADD97C,5.0000*%
%ADD99C,0.4572*%
G36*
X50800Y476126D02*
X683260D01*
X683260D01*
X684540D01*
X684544Y476125D01*
X685402Y476125D01*
X685800D01*
X685800D01*
X687066Y476135D01*
X688310Y476054D01*
D01*
X691597Y475838D01*
X691598Y475838D01*
X697296Y474705D01*
X702798Y472837D01*
X708009Y470267D01*
X712840Y467039D01*
X717208Y463208D01*
X721039Y458840D01*
X724267Y454009D01*
X726837Y448798D01*
X728705Y443296D01*
X729838Y437598D01*
X730135Y433066D01*
X730126Y431800D01*
D01*
Y431800D01*
D01*
Y431789D01*
X730126Y430544D01*
Y429260D01*
Y50800D01*
X730195Y50450D01*
X729838Y45002D01*
X728705Y39304D01*
X726837Y33802D01*
X724267Y28591D01*
X721039Y23760D01*
X717208Y19392D01*
X712840Y15561D01*
X708009Y12333D01*
X702798Y9763D01*
X697296Y7895D01*
X691598Y6762D01*
X686150Y6405D01*
X685800Y6474D01*
X50800D01*
X50450Y6405D01*
X45002Y6762D01*
X39304Y7895D01*
X33802Y9763D01*
X28591Y12333D01*
X23760Y15561D01*
X19392Y19392D01*
X15561Y23760D01*
X12333Y28591D01*
X9763Y33802D01*
X7895Y39304D01*
X6762Y45002D01*
X6465Y49534D01*
X6474Y50800D01*
D01*
Y50800D01*
D01*
Y50811D01*
X6474Y52056D01*
Y53340D01*
Y431800D01*
X6405Y432150D01*
X6762Y437598D01*
X7895Y443296D01*
X9763Y448798D01*
X12333Y454009D01*
X15561Y458840D01*
X19392Y463208D01*
X23760Y467039D01*
X28591Y470267D01*
X33802Y472837D01*
X39304Y474705D01*
X45002Y475838D01*
X50450Y476195D01*
X50800Y476126D01*
D02*
G37*
%LPC*%
G36*
X216759Y429768D02*
X215041D01*
X213454Y429111D01*
X212239Y427896D01*
X211582Y426309D01*
Y424591D01*
X212239Y423004D01*
X213454Y421789D01*
X215041Y421132D01*
X216759D01*
X218346Y421789D01*
X219561Y423004D01*
X220218Y424591D01*
Y426309D01*
X219561Y427896D01*
X218346Y429111D01*
X216759Y429768D01*
D02*
G37*
G36*
X191359D02*
X189641D01*
X188054Y429111D01*
X186839Y427896D01*
X186182Y426309D01*
Y424591D01*
X186839Y423004D01*
X188054Y421789D01*
X189641Y421132D01*
X191359D01*
X192946Y421789D01*
X194161Y423004D01*
X194818Y424591D01*
Y426309D01*
X194161Y427896D01*
X192946Y429111D01*
X191359Y429768D01*
D02*
G37*
G36*
X102184Y460282D02*
X98016D01*
X93899Y459630D01*
X89934Y458342D01*
X86220Y456449D01*
X82848Y453999D01*
X79901Y451052D01*
X77451Y447680D01*
X75558Y443966D01*
X74270Y440001D01*
X73618Y435884D01*
Y431716D01*
X74270Y427599D01*
X75558Y423634D01*
X77451Y419920D01*
X79901Y416548D01*
X82848Y413601D01*
X86220Y411151D01*
X89934Y409258D01*
X93899Y407970D01*
X98016Y407318D01*
X102184D01*
X106301Y407970D01*
X110266Y409258D01*
X113980Y411151D01*
X117352Y413601D01*
X120299Y416548D01*
X122749Y419920D01*
X124642Y423634D01*
X125930Y427599D01*
X126582Y431716D01*
Y435884D01*
X125930Y440001D01*
X124642Y443966D01*
X122749Y447680D01*
X120299Y451052D01*
X117352Y453999D01*
X113980Y456449D01*
X110266Y458342D01*
X106301Y459630D01*
X102184Y460282D01*
D02*
G37*
G36*
X413609Y404368D02*
X411891D01*
X410304Y403711D01*
X409089Y402496D01*
X408432Y400909D01*
Y399191D01*
X409089Y397604D01*
X410304Y396389D01*
X411891Y395732D01*
X413609D01*
X415196Y396389D01*
X416411Y397604D01*
X417068Y399191D01*
Y400909D01*
X416411Y402496D01*
X415196Y403711D01*
X413609Y404368D01*
D02*
G37*
G36*
X712059Y385318D02*
X710341D01*
X708754Y384661D01*
X707539Y383446D01*
X706882Y381859D01*
Y380141D01*
X707024Y379798D01*
X706052Y378826D01*
X705709Y378968D01*
X703991D01*
X702404Y378311D01*
X701189Y377096D01*
X700532Y375509D01*
Y373791D01*
X701189Y372204D01*
X702404Y370989D01*
X703991Y370332D01*
X705709D01*
X707296Y370989D01*
X708511Y372204D01*
X709168Y373791D01*
Y374419D01*
Y375509D01*
X709026Y375852D01*
X709998Y376824D01*
X710341Y376682D01*
X712059D01*
X713646Y377339D01*
X714861Y378554D01*
X715518Y380141D01*
Y381859D01*
X714861Y383446D01*
X713646Y384661D01*
X712059Y385318D01*
D02*
G37*
G36*
X246371Y370952D02*
X243829D01*
X241374Y370294D01*
X239174Y369024D01*
X237376Y367226D01*
X236106Y365025D01*
X235448Y362571D01*
Y360029D01*
X236106Y357574D01*
X237376Y355373D01*
X239174Y353577D01*
X241374Y352306D01*
X243829Y351648D01*
X246371D01*
X248825Y352306D01*
X251026Y353577D01*
X252824Y355373D01*
X254094Y357574D01*
X254752Y360029D01*
Y362571D01*
X254094Y365025D01*
X252824Y367226D01*
X251026Y369024D01*
X248825Y370294D01*
X246371Y370952D01*
D02*
G37*
G36*
X166371D02*
X163829D01*
X161374Y370294D01*
X159173Y369024D01*
X157376Y367226D01*
X156106Y365025D01*
X155448Y362571D01*
Y360029D01*
X156106Y357574D01*
X157376Y355373D01*
X159173Y353577D01*
X161374Y352306D01*
X163829Y351648D01*
X166371D01*
X168825Y352306D01*
X171026Y353577D01*
X172824Y355373D01*
X174094Y357574D01*
X174752Y360029D01*
Y362571D01*
X174094Y365025D01*
X172824Y367226D01*
X171026Y369024D01*
X168825Y370294D01*
X166371Y370952D01*
D02*
G37*
G36*
X191371Y355952D02*
X188829D01*
X186374Y355294D01*
X184174Y354024D01*
X182376Y352226D01*
X181106Y350025D01*
X180448Y347571D01*
Y345029D01*
X181106Y342574D01*
X182376Y340373D01*
X184174Y338577D01*
X186374Y337306D01*
X188829Y336648D01*
X191371D01*
X193825Y337306D01*
X196026Y338577D01*
X197824Y340373D01*
X199094Y342574D01*
X199752Y345029D01*
Y347571D01*
X199094Y350025D01*
X197824Y352226D01*
X196026Y354024D01*
X193825Y355294D01*
X191371Y355952D01*
D02*
G37*
G36*
X623159Y340868D02*
X621441D01*
X619854Y340211D01*
X618639Y338996D01*
X617982Y337409D01*
Y335691D01*
X618639Y334104D01*
X619854Y332889D01*
X621441Y332232D01*
X623159D01*
X624746Y332889D01*
X625961Y334104D01*
X626618Y335691D01*
Y337409D01*
X625961Y338996D01*
X624746Y340211D01*
X623159Y340868D01*
D02*
G37*
G36*
X696082Y346832D02*
X675518D01*
Y326268D01*
X696082D01*
Y346832D01*
D02*
G37*
G36*
X246371Y340952D02*
X243829D01*
X241374Y340294D01*
X239174Y339024D01*
X237376Y337226D01*
X236106Y335025D01*
X235448Y332571D01*
Y330029D01*
X236106Y327575D01*
X237376Y325373D01*
X239174Y323577D01*
X241374Y322306D01*
X243829Y321648D01*
X246371D01*
X248825Y322306D01*
X251026Y323577D01*
X252824Y325373D01*
X254094Y327575D01*
X254752Y330029D01*
Y332571D01*
X254094Y335025D01*
X252824Y337226D01*
X251026Y339024D01*
X248825Y340294D01*
X246371Y340952D01*
D02*
G37*
G36*
X166371D02*
X163829D01*
X161374Y340294D01*
X159173Y339024D01*
X157376Y337226D01*
X156106Y335025D01*
X155448Y332571D01*
Y330029D01*
X156106Y327575D01*
X157376Y325373D01*
X159173Y323577D01*
X161374Y322306D01*
X163829Y321648D01*
X166371D01*
X168825Y322306D01*
X171026Y323577D01*
X172824Y325373D01*
X174094Y327575D01*
X174752Y330029D01*
Y332571D01*
X174094Y335025D01*
X172824Y337226D01*
X171026Y339024D01*
X168825Y340294D01*
X166371Y340952D01*
D02*
G37*
G36*
X470759Y347218D02*
X469041D01*
X467454Y346561D01*
X466239Y345346D01*
X465582Y343759D01*
Y342041D01*
X466239Y340454D01*
X466533Y340160D01*
Y320240D01*
X466239Y319946D01*
X465582Y318359D01*
Y316641D01*
X466239Y315054D01*
X467454Y313839D01*
X469041Y313182D01*
X470759D01*
X472346Y313839D01*
X473561Y315054D01*
X474218Y316641D01*
Y318359D01*
X473561Y319946D01*
X473267Y320240D01*
Y340160D01*
X473561Y340454D01*
X474218Y342041D01*
Y343759D01*
X473561Y345346D01*
X472346Y346561D01*
X470759Y347218D01*
D02*
G37*
G36*
X191371Y325952D02*
X188829D01*
X186374Y325294D01*
X184174Y324024D01*
X182376Y322226D01*
X181106Y320025D01*
X180448Y317571D01*
Y315029D01*
X181106Y312575D01*
X182376Y310373D01*
X184174Y308577D01*
X186374Y307306D01*
X188829Y306648D01*
X191371D01*
X193825Y307306D01*
X196026Y308577D01*
X197824Y310373D01*
X199094Y312575D01*
X199752Y315029D01*
Y317571D01*
X199094Y320025D01*
X197824Y322226D01*
X196026Y324024D01*
X193825Y325294D01*
X191371Y325952D01*
D02*
G37*
G36*
X221438Y326460D02*
X218762D01*
X216178Y325768D01*
X213862Y324430D01*
X211970Y322538D01*
X210632Y320222D01*
X209940Y317638D01*
Y314962D01*
X210632Y312378D01*
X211970Y310062D01*
X213862Y308170D01*
X216178Y306832D01*
X218762Y306140D01*
X221438D01*
X224022Y306832D01*
X226338Y308170D01*
X228230Y310062D01*
X229568Y312378D01*
X230260Y314962D01*
Y317638D01*
X229568Y320222D01*
X228230Y322538D01*
X226338Y324430D01*
X224022Y325768D01*
X221438Y326460D01*
D02*
G37*
G36*
X687154Y321432D02*
X684446D01*
X681831Y320731D01*
X679487Y319378D01*
X677572Y317463D01*
X676219Y315119D01*
X675518Y312504D01*
Y309796D01*
X676219Y307181D01*
X677572Y304837D01*
X679487Y302922D01*
X681831Y301569D01*
X684446Y300868D01*
X687154D01*
X689769Y301569D01*
X692113Y302922D01*
X694028Y304837D01*
X695381Y307181D01*
X696082Y309796D01*
Y312504D01*
X695381Y315119D01*
X694028Y317463D01*
X692113Y319378D01*
X689769Y320731D01*
X687154Y321432D01*
D02*
G37*
G36*
X605379Y298800D02*
X603661D01*
X602074Y298143D01*
D01*
X601484Y297552D01*
X600769Y296982D01*
X599824Y297552D01*
X599346Y298031D01*
X597759Y298688D01*
X596041D01*
X594454Y298031D01*
X593239Y296816D01*
X592582Y295229D01*
Y293511D01*
X593239Y291924D01*
X594454Y290709D01*
X596041Y290052D01*
X597759D01*
X599346Y290709D01*
D01*
X599936Y291300D01*
X600651Y291870D01*
X601596Y291300D01*
X602074Y290821D01*
X603661Y290164D01*
X605379D01*
X606966Y290821D01*
X608181Y292036D01*
X608838Y293623D01*
Y295341D01*
X608181Y296928D01*
X606966Y298143D01*
X605379Y298800D01*
D02*
G37*
G36*
X246371Y310952D02*
X243829D01*
X241374Y310294D01*
X239174Y309023D01*
X237376Y307227D01*
X236106Y305026D01*
X235448Y302571D01*
Y300029D01*
X236106Y297575D01*
X237376Y295374D01*
X239174Y293577D01*
X241374Y292306D01*
X243829Y291648D01*
X246371D01*
X248825Y292306D01*
X251026Y293577D01*
X252824Y295374D01*
X254094Y297575D01*
X254752Y300029D01*
Y302571D01*
X254094Y305026D01*
X252824Y307227D01*
X251026Y309023D01*
X248825Y310294D01*
X246371Y310952D01*
D02*
G37*
G36*
X166371D02*
X163829D01*
X161374Y310294D01*
X159173Y309023D01*
X157376Y307227D01*
X156106Y305026D01*
X155448Y302571D01*
Y300029D01*
X156106Y297575D01*
X157376Y295374D01*
X159173Y293577D01*
X161374Y292306D01*
X163829Y291648D01*
X166371D01*
X168825Y292306D01*
X171026Y293577D01*
X172824Y295374D01*
X174094Y297575D01*
X174752Y300029D01*
Y302571D01*
X174094Y305026D01*
X172824Y307227D01*
X171026Y309023D01*
X168825Y310294D01*
X166371Y310952D01*
D02*
G37*
G36*
X687221Y296540D02*
X687070D01*
Y287020D01*
X696590D01*
Y287171D01*
X695855Y289915D01*
X694434Y292375D01*
X692425Y294384D01*
X689965Y295805D01*
X687221Y296540D01*
D02*
G37*
G36*
X684530D02*
X684380D01*
X681635Y295805D01*
X679175Y294384D01*
X677166Y292375D01*
X675745Y289915D01*
X675010Y287171D01*
Y287020D01*
X684530D01*
Y296540D01*
D02*
G37*
G36*
X221438Y296460D02*
X218762D01*
X216178Y295768D01*
X213862Y294430D01*
X211970Y292538D01*
X210632Y290222D01*
X209940Y287638D01*
Y284962D01*
X210632Y282378D01*
X211970Y280062D01*
X213862Y278170D01*
X216178Y276832D01*
X218762Y276140D01*
X221438D01*
X224022Y276832D01*
X226338Y278170D01*
X228230Y280062D01*
X229568Y282378D01*
X230260Y284962D01*
Y287638D01*
X229568Y290222D01*
X228230Y292538D01*
X226338Y294430D01*
X224022Y295768D01*
X221438Y296460D01*
D02*
G37*
G36*
X191438D02*
X188762D01*
X186178Y295768D01*
X183862Y294430D01*
X181970Y292538D01*
X180632Y290222D01*
X179940Y287638D01*
Y284962D01*
X180632Y282378D01*
X181970Y280062D01*
X183862Y278170D01*
X186178Y276832D01*
X188762Y276140D01*
X191438D01*
X194022Y276832D01*
X196338Y278170D01*
X198230Y280062D01*
X199568Y282378D01*
X200260Y284962D01*
Y287638D01*
X199568Y290222D01*
X198230Y292538D01*
X196338Y294430D01*
X194022Y295768D01*
X191438Y296460D01*
D02*
G37*
G36*
X696590Y284480D02*
X687070D01*
Y274960D01*
X687221D01*
X689965Y275695D01*
X692425Y277116D01*
X694434Y279125D01*
X695855Y281585D01*
X696590Y284329D01*
Y284480D01*
D02*
G37*
G36*
X684530D02*
X675010D01*
Y284329D01*
X675745Y281585D01*
X677166Y279125D01*
X679175Y277116D01*
X681635Y275695D01*
X684380Y274960D01*
X684530D01*
Y284480D01*
D02*
G37*
G36*
X246371Y280952D02*
X243829D01*
X241374Y280294D01*
X239174Y279023D01*
X237376Y277226D01*
X236106Y275026D01*
X235448Y272571D01*
Y270029D01*
X236106Y267574D01*
X237376Y265373D01*
X239174Y263577D01*
X241374Y262306D01*
X243829Y261648D01*
X246371D01*
X248825Y262306D01*
X251026Y263577D01*
X252824Y265373D01*
X254094Y267574D01*
X254752Y270029D01*
Y272571D01*
X254094Y275026D01*
X252824Y277226D01*
X251026Y279023D01*
X248825Y280294D01*
X246371Y280952D01*
D02*
G37*
G36*
X166371D02*
X163829D01*
X161374Y280294D01*
X159173Y279023D01*
X157376Y277226D01*
X156106Y275026D01*
X155448Y272571D01*
Y270029D01*
X156106Y267574D01*
X157376Y265373D01*
X159173Y263577D01*
X161374Y262306D01*
X163829Y261648D01*
X166371D01*
X168825Y262306D01*
X171026Y263577D01*
X172824Y265373D01*
X174094Y267574D01*
X174752Y270029D01*
Y272571D01*
X174094Y275026D01*
X172824Y277226D01*
X171026Y279023D01*
X168825Y280294D01*
X166371Y280952D01*
D02*
G37*
G36*
X687154Y270632D02*
X684446D01*
X681831Y269931D01*
X679487Y268578D01*
X677572Y266663D01*
X676219Y264319D01*
X675518Y261704D01*
Y258996D01*
X676219Y256381D01*
X677572Y254037D01*
X679487Y252122D01*
X681831Y250769D01*
X684446Y250068D01*
X687154D01*
X689769Y250769D01*
X692113Y252122D01*
X694028Y254037D01*
X695381Y256381D01*
X696082Y258996D01*
Y261704D01*
X695381Y264319D01*
X694028Y266663D01*
X692113Y268578D01*
X689769Y269931D01*
X687154Y270632D01*
D02*
G37*
G36*
X191371Y265952D02*
X188829D01*
X186374Y265294D01*
X184174Y264023D01*
X182376Y262227D01*
X181106Y260026D01*
X180448Y257571D01*
Y255029D01*
X181106Y252575D01*
X182376Y250373D01*
X184174Y248577D01*
X186374Y247306D01*
X188829Y246648D01*
X191371D01*
X193825Y247306D01*
X196026Y248577D01*
X197824Y250373D01*
X199094Y252575D01*
X199752Y255029D01*
Y257571D01*
X199094Y260026D01*
X197824Y262227D01*
X196026Y264023D01*
X193825Y265294D01*
X191371Y265952D01*
D02*
G37*
G36*
X221438Y266460D02*
X218762D01*
X216178Y265768D01*
X213862Y264430D01*
X211970Y262538D01*
X210632Y260222D01*
X209940Y257638D01*
Y254962D01*
X210632Y252378D01*
X211970Y250062D01*
X213862Y248170D01*
X216178Y246832D01*
X218762Y246140D01*
X221438D01*
X224022Y246832D01*
X226338Y248170D01*
X228230Y250062D01*
X229568Y252378D01*
X230260Y254962D01*
Y257638D01*
X229568Y260222D01*
X228230Y262538D01*
X226338Y264430D01*
X224022Y265768D01*
X221438Y266460D01*
D02*
G37*
G36*
X687154Y245232D02*
X684446D01*
X681831Y244531D01*
X679487Y243178D01*
X677572Y241263D01*
X676219Y238919D01*
X675518Y236304D01*
Y233740D01*
X674861Y233217D01*
X674471Y232992D01*
X672791Y234671D01*
X672189Y236126D01*
X670974Y237341D01*
X669387Y237998D01*
X667669D01*
X666082Y237341D01*
X664867Y236126D01*
X664210Y234539D01*
Y232821D01*
X664867Y231234D01*
X666082Y230019D01*
X667669Y229362D01*
X668578D01*
X677637Y220303D01*
X678730Y219573D01*
X680018Y219316D01*
X691323D01*
X695682Y214957D01*
X695384Y213459D01*
X694784Y213211D01*
X694784Y213211D01*
X693569Y211996D01*
X692912Y210409D01*
Y208691D01*
X693569Y207104D01*
X694784Y205889D01*
X696371Y205232D01*
X698057D01*
X707833Y195455D01*
Y190700D01*
X707539Y190406D01*
X706882Y188819D01*
Y187101D01*
X707539Y185514D01*
X708754Y184299D01*
X709418Y184025D01*
X709906Y182469D01*
X709715Y182183D01*
X690895D01*
X689607Y181926D01*
X688514Y181197D01*
X682134Y174817D01*
X656790D01*
X656496Y175111D01*
X654909Y175768D01*
X653191D01*
X651604Y175111D01*
X650389Y173896D01*
X649732Y172309D01*
Y170591D01*
X650389Y169004D01*
X651604Y167789D01*
X653191Y167132D01*
X654909D01*
X656496Y167789D01*
X656790Y168083D01*
X683529D01*
X684817Y168340D01*
X685910Y169069D01*
X686609Y169769D01*
X687041Y170200D01*
D01*
X688013Y171172D01*
X689511Y170874D01*
X689759Y170274D01*
X689759Y170274D01*
X690974Y169059D01*
X692561Y168402D01*
X694279D01*
X695866Y169059D01*
X697081Y170274D01*
X697738Y171861D01*
Y173579D01*
Y173579D01*
X697489Y174179D01*
X698338Y175449D01*
X712216D01*
X713504Y175706D01*
X714597Y176435D01*
X720148Y181987D01*
X720878Y183079D01*
X721135Y184368D01*
Y197633D01*
X720878Y198922D01*
X720148Y200014D01*
X695098Y225064D01*
X694006Y225793D01*
X693151Y225964D01*
X692713Y227000D01*
X692711Y227320D01*
X694028Y228637D01*
X695381Y230981D01*
X696082Y233596D01*
Y236304D01*
X695381Y238919D01*
X694028Y241263D01*
X692113Y243178D01*
X689769Y244531D01*
X687154Y245232D01*
D02*
G37*
G36*
X246371Y250952D02*
X243829D01*
X241374Y250294D01*
X239174Y249023D01*
X237376Y247227D01*
X236106Y245026D01*
X235448Y242571D01*
Y240029D01*
X236106Y237575D01*
X237376Y235373D01*
X239174Y233577D01*
X241374Y232306D01*
X243829Y231648D01*
X246371D01*
X248825Y232306D01*
X251026Y233577D01*
X252824Y235373D01*
X254094Y237575D01*
X254752Y240029D01*
Y242571D01*
X254094Y245026D01*
X252824Y247227D01*
X251026Y249023D01*
X248825Y250294D01*
X246371Y250952D01*
D02*
G37*
G36*
X166371D02*
X163829D01*
X161374Y250294D01*
X159173Y249023D01*
X157376Y247227D01*
X156106Y245026D01*
X155448Y242571D01*
Y240029D01*
X156106Y237575D01*
X157376Y235373D01*
X159173Y233577D01*
X161374Y232306D01*
X163829Y231648D01*
X166371D01*
X168825Y232306D01*
X171026Y233577D01*
X172824Y235373D01*
X174094Y237575D01*
X174752Y240029D01*
Y242571D01*
X174094Y245026D01*
X172824Y247227D01*
X171026Y249023D01*
X168825Y250294D01*
X166371Y250952D01*
D02*
G37*
G36*
X356459Y226568D02*
X354741D01*
X353154Y225911D01*
X351939Y224696D01*
X351282Y223109D01*
Y221391D01*
X351939Y219804D01*
X353154Y218589D01*
X354741Y217932D01*
X356459D01*
X358046Y218589D01*
X359261Y219804D01*
X359918Y221391D01*
Y223109D01*
X359261Y224696D01*
X358046Y225911D01*
X356459Y226568D01*
D02*
G37*
G36*
X191371Y235952D02*
X188829D01*
X186374Y235294D01*
X184174Y234023D01*
X182376Y232227D01*
X181106Y230026D01*
X180448Y227571D01*
Y225029D01*
X181106Y222575D01*
X182376Y220373D01*
X184174Y218577D01*
X186374Y217306D01*
X188829Y216648D01*
X191371D01*
X193825Y217306D01*
X196026Y218577D01*
X197824Y220373D01*
X199094Y222575D01*
X199752Y225029D01*
Y227571D01*
X199094Y230026D01*
X197824Y232227D01*
X196026Y234023D01*
X193825Y235294D01*
X191371Y235952D01*
D02*
G37*
G36*
X221438Y236460D02*
X218762D01*
X216178Y235768D01*
X213862Y234430D01*
X211970Y232538D01*
X210632Y230222D01*
X209940Y227638D01*
Y224962D01*
X210632Y222378D01*
X211970Y220062D01*
X213862Y218170D01*
X216178Y216832D01*
X218762Y216140D01*
X221438D01*
X224022Y216832D01*
X226338Y218170D01*
X228230Y220062D01*
X229568Y222378D01*
X230260Y224962D01*
Y227638D01*
X229568Y230222D01*
X228230Y232538D01*
X226338Y234430D01*
X224022Y235768D01*
X221438Y236460D01*
D02*
G37*
G36*
X616809Y213868D02*
X615091D01*
X613504Y213211D01*
X612289Y211996D01*
X611632Y210409D01*
Y208691D01*
X612289Y207104D01*
X613504Y205889D01*
X615091Y205232D01*
X616809D01*
X618396Y205889D01*
X619611Y207104D01*
X620268Y208691D01*
Y210409D01*
X619611Y211996D01*
X618396Y213211D01*
X616809Y213868D01*
D02*
G37*
G36*
X246371Y220952D02*
X243829D01*
X241374Y220294D01*
X239174Y219023D01*
X237376Y217227D01*
X236106Y215026D01*
X235448Y212571D01*
Y210029D01*
X236106Y207575D01*
X237376Y205374D01*
X239174Y203577D01*
X241374Y202306D01*
X243829Y201648D01*
X246371D01*
X248825Y202306D01*
X251026Y203577D01*
X252824Y205374D01*
X254094Y207575D01*
X254752Y210029D01*
Y212571D01*
X254094Y215026D01*
X252824Y217227D01*
X251026Y219023D01*
X248825Y220294D01*
X246371Y220952D01*
D02*
G37*
G36*
X166371D02*
X163829D01*
X161374Y220294D01*
X159173Y219023D01*
X157376Y217227D01*
X156106Y215026D01*
X155448Y212571D01*
Y210029D01*
X156106Y207575D01*
X157376Y205374D01*
X159173Y203577D01*
X161374Y202306D01*
X163829Y201648D01*
X166371D01*
X168825Y202306D01*
X171026Y203577D01*
X172824Y205374D01*
X174094Y207575D01*
X174752Y210029D01*
Y212571D01*
X174094Y215026D01*
X172824Y217227D01*
X171026Y219023D01*
X168825Y220294D01*
X166371Y220952D01*
D02*
G37*
G36*
X191371Y205952D02*
X188829D01*
X186374Y205294D01*
X184174Y204023D01*
X182376Y202226D01*
X181106Y200026D01*
X180448Y197571D01*
Y195029D01*
X181106Y192574D01*
X182376Y190373D01*
X184174Y188577D01*
X186374Y187306D01*
X188829Y186648D01*
X191371D01*
X193825Y187306D01*
X196026Y188577D01*
X197824Y190373D01*
X199094Y192574D01*
X199752Y195029D01*
Y197571D01*
X199094Y200026D01*
X197824Y202226D01*
X196026Y204023D01*
X193825Y205294D01*
X191371Y205952D01*
D02*
G37*
G36*
X221438Y206460D02*
X218762D01*
X216178Y205768D01*
X213862Y204430D01*
X211970Y202538D01*
X210632Y200222D01*
X209940Y197638D01*
Y194962D01*
X210632Y192378D01*
X211970Y190062D01*
X213862Y188170D01*
X216178Y186832D01*
X218762Y186140D01*
X221438D01*
X224022Y186832D01*
X226338Y188170D01*
X228230Y190062D01*
X229568Y192378D01*
X230260Y194962D01*
Y197638D01*
X229568Y200222D01*
X228230Y202538D01*
X226338Y204430D01*
X224022Y205768D01*
X221438Y206460D01*
D02*
G37*
G36*
X246371Y190952D02*
X243829D01*
X241374Y190294D01*
X239174Y189023D01*
X237376Y187226D01*
X236106Y185026D01*
X235448Y182571D01*
Y180029D01*
X236106Y177574D01*
X237376Y175373D01*
X239174Y173577D01*
X241374Y172306D01*
X243829Y171648D01*
X246371D01*
X248825Y172306D01*
X251026Y173577D01*
X252824Y175373D01*
X254094Y177574D01*
X254752Y180029D01*
Y182571D01*
X254094Y185026D01*
X252824Y187226D01*
X251026Y189023D01*
X248825Y190294D01*
X246371Y190952D01*
D02*
G37*
G36*
X166371D02*
X163829D01*
X161374Y190294D01*
X159173Y189023D01*
X157376Y187226D01*
X156106Y185026D01*
X155448Y182571D01*
Y180029D01*
X156106Y177574D01*
X157376Y175373D01*
X159173Y173577D01*
X161374Y172306D01*
X163829Y171648D01*
X166371D01*
X168825Y172306D01*
X171026Y173577D01*
X172824Y175373D01*
X174094Y177574D01*
X174752Y180029D01*
Y182571D01*
X174094Y185026D01*
X172824Y187226D01*
X171026Y189023D01*
X168825Y190294D01*
X166371Y190952D01*
D02*
G37*
G36*
X512669Y175768D02*
X510951D01*
X509364Y175111D01*
X508149Y173896D01*
X507492Y172309D01*
Y170591D01*
X508149Y169004D01*
X509364Y167789D01*
X510951Y167132D01*
X512669D01*
X514256Y167789D01*
X514550Y168083D01*
X527646D01*
X527907Y167822D01*
X528469Y166464D01*
X529684Y165249D01*
X531271Y164592D01*
X532989D01*
X534576Y165249D01*
X535791Y166464D01*
X536448Y168051D01*
Y169769D01*
X535791Y171356D01*
X534576Y172571D01*
X532989Y173228D01*
X532023D01*
X531421Y173831D01*
X530328Y174560D01*
X529040Y174817D01*
X514550D01*
X514256Y175111D01*
X512669Y175768D01*
D02*
G37*
G36*
X221438Y176460D02*
X218762D01*
X216178Y175768D01*
X213862Y174430D01*
X211970Y172538D01*
X210632Y170222D01*
X209940Y167638D01*
Y164962D01*
X210632Y162378D01*
X211970Y160062D01*
X213862Y158170D01*
X216178Y156832D01*
X218762Y156140D01*
X221438D01*
X224022Y156832D01*
X226338Y158170D01*
X228230Y160062D01*
X229568Y162378D01*
X230260Y164962D01*
Y167638D01*
X229568Y170222D01*
X228230Y172538D01*
X226338Y174430D01*
X224022Y175768D01*
X221438Y176460D01*
D02*
G37*
G36*
X191438D02*
X188762D01*
X186178Y175768D01*
X183862Y174430D01*
X181970Y172538D01*
X180632Y170222D01*
X179940Y167638D01*
Y164962D01*
X180632Y162378D01*
X181970Y160062D01*
X183862Y158170D01*
X186178Y156832D01*
X188762Y156140D01*
X191438D01*
X194022Y156832D01*
X196338Y158170D01*
X198230Y160062D01*
X199568Y162378D01*
X200260Y164962D01*
Y167638D01*
X199568Y170222D01*
X198230Y172538D01*
X196338Y174430D01*
X194022Y175768D01*
X191438Y176460D01*
D02*
G37*
G36*
X246371Y160952D02*
X243829D01*
X241374Y160294D01*
X239174Y159024D01*
X237376Y157226D01*
X236106Y155026D01*
X235448Y152571D01*
Y150029D01*
X236106Y147575D01*
X237376Y145373D01*
X239174Y143576D01*
X241374Y142306D01*
X243829Y141648D01*
X246371D01*
X248825Y142306D01*
X251026Y143576D01*
X252824Y145373D01*
X254094Y147575D01*
X254752Y150029D01*
Y152571D01*
X254094Y155026D01*
X252824Y157226D01*
X251026Y159024D01*
X248825Y160294D01*
X246371Y160952D01*
D02*
G37*
G36*
X166371D02*
X163829D01*
X161374Y160294D01*
X159173Y159024D01*
X157376Y157226D01*
X156106Y155026D01*
X155448Y152571D01*
Y150029D01*
X156106Y147575D01*
X157376Y145373D01*
X159173Y143576D01*
X161374Y142306D01*
X163829Y141648D01*
X166371D01*
X168825Y142306D01*
X171026Y143576D01*
X172824Y145373D01*
X174094Y147575D01*
X174752Y150029D01*
Y152571D01*
X174094Y155026D01*
X172824Y157226D01*
X171026Y159024D01*
X168825Y160294D01*
X166371Y160952D01*
D02*
G37*
G36*
X221438Y146460D02*
X218762D01*
X216178Y145768D01*
X213862Y144430D01*
X211970Y142538D01*
X210632Y140222D01*
X209940Y137638D01*
Y134962D01*
X210632Y132378D01*
X211970Y130062D01*
X213862Y128170D01*
X216178Y126832D01*
X218762Y126140D01*
X221438D01*
X224022Y126832D01*
X226338Y128170D01*
X228230Y130062D01*
X229568Y132378D01*
X230260Y134962D01*
Y137638D01*
X229568Y140222D01*
X228230Y142538D01*
X226338Y144430D01*
X224022Y145768D01*
X221438Y146460D01*
D02*
G37*
G36*
X191438D02*
X188762D01*
X186178Y145768D01*
X183862Y144430D01*
X181970Y142538D01*
X180632Y140222D01*
X179940Y137638D01*
Y134962D01*
X180632Y132378D01*
X181970Y130062D01*
X183862Y128170D01*
X186178Y126832D01*
X188762Y126140D01*
X191438D01*
X194022Y126832D01*
X196338Y128170D01*
X198230Y130062D01*
X199568Y132378D01*
X200260Y134962D01*
Y137638D01*
X199568Y140222D01*
X198230Y142538D01*
X196338Y144430D01*
X194022Y145768D01*
X191438Y146460D01*
D02*
G37*
G36*
X694279Y133858D02*
X692561D01*
X690974Y133201D01*
X689759Y131986D01*
X689102Y130399D01*
Y128681D01*
X689759Y127094D01*
X690974Y125879D01*
X692561Y125222D01*
X694279D01*
X695866Y125879D01*
X697081Y127094D01*
X697738Y128681D01*
Y130399D01*
X697081Y131986D01*
X695866Y133201D01*
X694279Y133858D01*
D02*
G37*
G36*
X246371Y130952D02*
X243829D01*
X241374Y130294D01*
X239174Y129024D01*
X237376Y127226D01*
X236106Y125026D01*
X235448Y122571D01*
Y120029D01*
X236106Y117575D01*
X237376Y115374D01*
X239174Y113576D01*
X241374Y112306D01*
X243829Y111648D01*
X246371D01*
X248825Y112306D01*
X251026Y113576D01*
X252824Y115374D01*
X254094Y117575D01*
X254752Y120029D01*
Y122571D01*
X254094Y125026D01*
X252824Y127226D01*
X251026Y129024D01*
X248825Y130294D01*
X246371Y130952D01*
D02*
G37*
G36*
X166371D02*
X163829D01*
X161374Y130294D01*
X159173Y129024D01*
X157376Y127226D01*
X156106Y125026D01*
X155448Y122571D01*
Y120029D01*
X156106Y117575D01*
X157376Y115374D01*
X159173Y113576D01*
X161374Y112306D01*
X163829Y111648D01*
X166371D01*
X168825Y112306D01*
X171026Y113576D01*
X172824Y115374D01*
X174094Y117575D01*
X174752Y120029D01*
Y122571D01*
X174094Y125026D01*
X172824Y127226D01*
X171026Y129024D01*
X168825Y130294D01*
X166371Y130952D01*
D02*
G37*
G36*
X273909Y99568D02*
X272191D01*
X270604Y98911D01*
X269389Y97696D01*
X268732Y96109D01*
Y94391D01*
X269389Y92804D01*
X270604Y91589D01*
X272191Y90932D01*
X273909D01*
X275496Y91589D01*
X276711Y92804D01*
X277368Y94391D01*
Y96109D01*
X276711Y97696D01*
X275496Y98911D01*
X273909Y99568D01*
D02*
G37*
G36*
X261209D02*
X259491D01*
X257904Y98911D01*
X256689Y97696D01*
X256032Y96109D01*
Y94391D01*
X256689Y92804D01*
X257904Y91589D01*
X259491Y90932D01*
X261209D01*
X262796Y91589D01*
X264011Y92804D01*
X264668Y94391D01*
Y96109D01*
X264011Y97696D01*
X262796Y98911D01*
X261209Y99568D01*
D02*
G37*
G36*
X248509D02*
X246791D01*
X245204Y98911D01*
X243989Y97696D01*
X243332Y96109D01*
Y94391D01*
X243989Y92804D01*
X245204Y91589D01*
X246791Y90932D01*
X248509D01*
X250096Y91589D01*
X251311Y92804D01*
X251968Y94391D01*
Y96109D01*
X251311Y97696D01*
X250096Y98911D01*
X248509Y99568D01*
D02*
G37*
G36*
X235809D02*
X234091D01*
X232504Y98911D01*
X231289Y97696D01*
X230632Y96109D01*
Y94391D01*
X231289Y92804D01*
X232504Y91589D01*
X234091Y90932D01*
X235809D01*
X237396Y91589D01*
X238611Y92804D01*
X239268Y94391D01*
Y96109D01*
X238611Y97696D01*
X237396Y98911D01*
X235809Y99568D01*
D02*
G37*
G36*
X273909Y86868D02*
X272191D01*
X270604Y86211D01*
X269389Y84996D01*
X268732Y83409D01*
Y81691D01*
X269389Y80104D01*
X270604Y78889D01*
X272191Y78232D01*
X273909D01*
X275496Y78889D01*
X276711Y80104D01*
X277368Y81691D01*
Y83409D01*
X276711Y84996D01*
X275496Y86211D01*
X273909Y86868D01*
D02*
G37*
G36*
X261209D02*
X259491D01*
X257904Y86211D01*
X256689Y84996D01*
X256032Y83409D01*
Y81691D01*
X256689Y80104D01*
X257904Y78889D01*
X259491Y78232D01*
X261209D01*
X262796Y78889D01*
X264011Y80104D01*
X264668Y81691D01*
Y83409D01*
X264011Y84996D01*
X262796Y86211D01*
X261209Y86868D01*
D02*
G37*
G36*
X248509D02*
X246791D01*
X245204Y86211D01*
X243989Y84996D01*
X243332Y83409D01*
Y81691D01*
X243989Y80104D01*
X245204Y78889D01*
X246791Y78232D01*
X248509D01*
X250096Y78889D01*
X251311Y80104D01*
X251968Y81691D01*
Y83409D01*
X251311Y84996D01*
X250096Y86211D01*
X248509Y86868D01*
D02*
G37*
G36*
X235809D02*
X234091D01*
X232504Y86211D01*
X231289Y84996D01*
X230632Y83409D01*
Y81691D01*
X231289Y80104D01*
X232504Y78889D01*
X234091Y78232D01*
X235809D01*
X237396Y78889D01*
X238611Y80104D01*
X239268Y81691D01*
Y83409D01*
X238611Y84996D01*
X237396Y86211D01*
X235809Y86868D01*
D02*
G37*
G36*
X611729Y74168D02*
X610011D01*
X608424Y73511D01*
X607209Y72296D01*
X606552Y70709D01*
Y68991D01*
X607209Y67404D01*
X608424Y66189D01*
X610011Y65532D01*
X611729D01*
X613316Y66189D01*
X614531Y67404D01*
X615188Y68991D01*
Y70709D01*
X614531Y72296D01*
X613316Y73511D01*
X611729Y74168D01*
D02*
G37*
G36*
X587599D02*
X585881D01*
X584294Y73511D01*
X583079Y72296D01*
X582422Y70709D01*
Y68991D01*
X583079Y67404D01*
X584294Y66189D01*
X585881Y65532D01*
X587599D01*
X589186Y66189D01*
X590401Y67404D01*
X591058Y68991D01*
Y70709D01*
X590401Y72296D01*
X589186Y73511D01*
X587599Y74168D01*
D02*
G37*
G36*
X626851Y74882D02*
X624749D01*
X622808Y74078D01*
X621322Y72592D01*
X620518Y70651D01*
Y68549D01*
X621322Y66608D01*
X622808Y65122D01*
X624749Y64318D01*
X626851D01*
X628792Y65122D01*
X630278Y66608D01*
X631082Y68549D01*
Y70651D01*
X630467Y72135D01*
X630278Y72592D01*
X628792Y74078D01*
X626851Y74882D01*
D02*
G37*
G36*
X569051D02*
X566949D01*
X565008Y74078D01*
X563522Y72592D01*
X563333Y72135D01*
X562718Y70651D01*
Y68549D01*
X563275Y67204D01*
X563522Y66608D01*
X565008Y65122D01*
X566949Y64318D01*
X569051D01*
X570992Y65122D01*
X572478Y66608D01*
X573282Y68549D01*
Y70651D01*
X572478Y72592D01*
X570992Y74078D01*
X569051Y74882D01*
D02*
G37*
G36*
X536799Y72898D02*
X535081D01*
X533494Y72241D01*
X532279Y71026D01*
X531622Y69439D01*
Y67721D01*
X532279Y66134D01*
X533494Y64919D01*
X535081Y64262D01*
X536799D01*
X538386Y64919D01*
X539601Y66134D01*
X540258Y67721D01*
Y69439D01*
X539601Y71026D01*
X538386Y72241D01*
X536799Y72898D01*
D02*
G37*
G36*
X526639D02*
X524921D01*
X523334Y72241D01*
X522119Y71026D01*
X521462Y69439D01*
Y67721D01*
X522119Y66134D01*
X523334Y64919D01*
X523442Y64875D01*
D01*
X524921Y64262D01*
X526639D01*
X528226Y64919D01*
X529441Y66134D01*
X530098Y67721D01*
Y69439D01*
X529441Y71026D01*
X528226Y72241D01*
X526639Y72898D01*
D02*
G37*
G36*
X640100Y87193D02*
X638264Y86951D01*
X636554Y86242D01*
X635085Y85115D01*
X633958Y83646D01*
X633249Y81936D01*
X633007Y80100D01*
Y69100D01*
X633249Y67264D01*
X633274Y67204D01*
X633958Y65554D01*
X635085Y64085D01*
X636554Y62958D01*
X638264Y62249D01*
X640100Y62007D01*
X641936Y62249D01*
X643646Y62958D01*
X645115Y64085D01*
X646242Y65554D01*
X646951Y67264D01*
X647193Y69100D01*
Y80100D01*
X646951Y81936D01*
X646242Y83646D01*
X645115Y85115D01*
X643646Y86242D01*
X641936Y86951D01*
X640100Y87193D01*
D02*
G37*
G36*
X553700D02*
X551864Y86951D01*
X550154Y86242D01*
X548685Y85115D01*
X547558Y83646D01*
X546849Y81936D01*
X546607Y80100D01*
Y69100D01*
X546849Y67264D01*
X547558Y65554D01*
X548685Y64085D01*
X550154Y62958D01*
X551864Y62249D01*
X553700Y62007D01*
X555536Y62249D01*
X557246Y62958D01*
X558715Y64085D01*
X559842Y65554D01*
X560551Y67264D01*
X560793Y69100D01*
Y72640D01*
Y80100D01*
X560551Y81936D01*
X559842Y83646D01*
X558715Y85115D01*
X557246Y86242D01*
X555536Y86951D01*
X553700Y87193D01*
D02*
G37*
G36*
X536799Y62738D02*
X535081D01*
X533494Y62081D01*
X532279Y60866D01*
X531622Y59279D01*
Y57561D01*
X532279Y55974D01*
X533494Y54759D01*
X535081Y54102D01*
X536799D01*
X538386Y54759D01*
X539601Y55974D01*
X540258Y57561D01*
Y59279D01*
X539601Y60866D01*
X538386Y62081D01*
X536799Y62738D01*
D02*
G37*
G36*
X526639D02*
X524921D01*
X523442Y62125D01*
X523334Y62081D01*
X522119Y60866D01*
X521462Y59279D01*
Y57561D01*
X522119Y55974D01*
X523334Y54759D01*
X524921Y54102D01*
X526639D01*
X528226Y54759D01*
X529441Y55974D01*
X530098Y57561D01*
Y59279D01*
X529441Y60866D01*
X528226Y62081D01*
X526639Y62738D01*
D02*
G37*
G36*
X102184Y75282D02*
X98016D01*
X93899Y74630D01*
X89934Y73342D01*
X86220Y71449D01*
X82848Y68999D01*
X79901Y66052D01*
X77451Y62680D01*
X75558Y58966D01*
X74270Y55001D01*
X73618Y50884D01*
Y46716D01*
X74270Y42599D01*
X75558Y38634D01*
X77451Y34920D01*
X79901Y31548D01*
X82848Y28601D01*
X86220Y26151D01*
X89934Y24258D01*
X93899Y22970D01*
X98016Y22318D01*
X102184D01*
X106301Y22970D01*
X110266Y24258D01*
X113980Y26151D01*
X117352Y28601D01*
X120299Y31548D01*
X122749Y34920D01*
X124642Y38634D01*
X125930Y42599D01*
X126582Y46716D01*
Y50884D01*
X125930Y55001D01*
X124642Y58966D01*
X122749Y62680D01*
X120299Y66052D01*
X117352Y68999D01*
X113980Y71449D01*
X110266Y73342D01*
X106301Y74630D01*
X102184Y75282D01*
D02*
G37*
G36*
X640100Y43893D02*
X638264Y43651D01*
X636554Y42942D01*
X635085Y41815D01*
X633958Y40346D01*
X633249Y38636D01*
X633007Y36800D01*
Y28800D01*
X633249Y26964D01*
X633958Y25254D01*
X635085Y23785D01*
X636554Y22658D01*
X638264Y21949D01*
X640100Y21707D01*
X641936Y21949D01*
X643646Y22658D01*
X645115Y23785D01*
X646242Y25254D01*
X646951Y26964D01*
X647193Y28800D01*
Y36800D01*
X646951Y38636D01*
X646242Y40346D01*
X645115Y41815D01*
X643646Y42942D01*
X641936Y43651D01*
X640100Y43893D01*
D02*
G37*
G36*
X553700D02*
X551864Y43651D01*
X550154Y42942D01*
X548685Y41815D01*
X547558Y40346D01*
X546849Y38636D01*
X546607Y36800D01*
Y28800D01*
X546849Y26964D01*
X547558Y25254D01*
X548685Y23785D01*
X550154Y22658D01*
X551864Y21949D01*
X553700Y21707D01*
X555536Y21949D01*
X557246Y22658D01*
X558715Y23785D01*
X559842Y25254D01*
X560551Y26964D01*
X560793Y28800D01*
Y36800D01*
X560551Y38636D01*
X559842Y40346D01*
X558715Y41815D01*
X557246Y42942D01*
X555536Y43651D01*
X553700Y43893D01*
D02*
G37*
%LPD*%
G36*
X221370Y317570D02*
X230260D01*
Y315030D01*
X221370D01*
Y306140D01*
X220100D01*
X218830D01*
Y315030D01*
X209940D01*
Y317570D01*
X218830D01*
Y326460D01*
X220100D01*
X221370D01*
Y317570D01*
D02*
G37*
G36*
X221370Y287570D02*
X230260D01*
Y285030D01*
X221370D01*
Y276140D01*
X220100D01*
X218830D01*
Y285030D01*
X209940D01*
Y287570D01*
X218830D01*
Y296460D01*
X220100D01*
X221370D01*
Y287570D01*
D02*
G37*
G36*
X191370Y287570D02*
X200260D01*
Y285030D01*
X191370D01*
Y276140D01*
X190100D01*
X188830D01*
Y285030D01*
X179940D01*
Y287570D01*
X188830D01*
Y296460D01*
X190100D01*
X191370D01*
Y287570D01*
D02*
G37*
G36*
X221370Y257570D02*
X230260D01*
Y255030D01*
X221370D01*
Y246140D01*
X220100D01*
X218830D01*
Y255030D01*
X209940D01*
Y257570D01*
X218830D01*
Y266460D01*
X220100D01*
X221370D01*
Y257570D01*
D02*
G37*
G36*
X221370Y227570D02*
X230260D01*
Y225030D01*
X221370D01*
Y216140D01*
X220100D01*
X218830D01*
Y225030D01*
X209940D01*
Y227570D01*
X218830D01*
Y236460D01*
X220100D01*
X221370D01*
Y227570D01*
D02*
G37*
G36*
X221370Y197570D02*
X230260D01*
Y195030D01*
X221370D01*
Y186140D01*
X220100D01*
X218830D01*
Y195030D01*
X209940D01*
Y197570D01*
X218830D01*
Y206460D01*
X220100D01*
X221370D01*
Y197570D01*
D02*
G37*
G36*
X221370Y167570D02*
X230260D01*
Y165030D01*
X221370D01*
Y156140D01*
X220100D01*
X218830D01*
Y165030D01*
X209940D01*
Y167570D01*
X218830D01*
Y176460D01*
X220100D01*
X221370D01*
Y167570D01*
D02*
G37*
G36*
X191370Y167570D02*
X200260D01*
Y165030D01*
X191370D01*
Y156140D01*
X190100D01*
X188830D01*
Y165030D01*
X179940D01*
Y167570D01*
X188830D01*
Y176460D01*
X190100D01*
X191370D01*
Y167570D01*
D02*
G37*
G36*
X221370Y137570D02*
X230260D01*
Y135030D01*
X221370D01*
Y126140D01*
X220100D01*
X218830D01*
Y135030D01*
X209940D01*
Y137570D01*
X218830D01*
Y146460D01*
X220100D01*
X221370D01*
Y137570D01*
D02*
G37*
G36*
X191370Y137570D02*
X200260D01*
Y135030D01*
X191370D01*
Y126140D01*
X190100D01*
X188830D01*
Y135030D01*
X179940D01*
Y137570D01*
X188830D01*
Y146460D01*
X190100D01*
X191370D01*
Y137570D01*
D02*
G37*
D18*
X190100Y136300D02*
D03*
Y196300D02*
D03*
Y226300D02*
D03*
Y286300D02*
D03*
X220100Y136300D02*
D03*
Y196300D02*
D03*
Y226300D02*
D03*
Y286300D02*
D03*
Y316300D02*
D03*
X245100Y121300D02*
D03*
Y151300D02*
D03*
X220100Y166300D02*
D03*
X190100D02*
D03*
X165100Y151300D02*
D03*
X220100Y256300D02*
D03*
X245100Y181300D02*
D03*
X165100D02*
D03*
X245100Y211300D02*
D03*
X165100D02*
D03*
Y241300D02*
D03*
X190100Y256300D02*
D03*
X165100Y121300D02*
D03*
X220100Y346300D02*
D03*
X245100Y361300D02*
D03*
Y331300D02*
D03*
Y301300D02*
D03*
Y271300D02*
D03*
Y241300D02*
D03*
X190100Y346300D02*
D03*
Y316300D02*
D03*
X165100Y361300D02*
D03*
Y331300D02*
D03*
Y301300D02*
D03*
Y271300D02*
D03*
D86*
X625800Y69600D02*
D03*
X568000D02*
D03*
D87*
X640100Y74600D02*
D03*
X553700D02*
D03*
D88*
X640100Y32800D02*
D03*
X553700D02*
D03*
D91*
X717768Y184368D02*
Y197633D01*
X692718Y222683D02*
X717768Y197633D01*
X680018Y222683D02*
X692718D01*
X669021Y233680D02*
X680018Y222683D01*
X668528Y233680D02*
X669021D01*
X712216Y178816D02*
X717768Y184368D01*
X690895Y178816D02*
X712216D01*
X683529Y171450D02*
X690895Y178816D01*
X654050Y171450D02*
X683529D01*
X699516Y208534D02*
X711200Y196850D01*
Y187960D02*
Y196850D01*
X511810Y171450D02*
X529040D01*
X697780Y209550D02*
X698796Y208534D01*
X699516D01*
X697230Y209550D02*
X697780D01*
X529040Y171450D02*
X531580Y168910D01*
X532130D01*
X469900Y317500D02*
Y342900D01*
D94*
X100100Y48800D02*
D03*
Y433800D02*
D03*
D95*
X685800Y234950D02*
D03*
Y260350D02*
D03*
Y285750D02*
D03*
Y311150D02*
D03*
D96*
Y336550D02*
D03*
D97*
X692150Y438150D02*
D03*
Y44450D02*
D03*
X184150D02*
D03*
D99*
X440690Y162560D02*
D03*
X450850D02*
D03*
X431800Y165100D02*
D03*
X603250Y387350D02*
D03*
X590550D02*
D03*
X603250Y419100D02*
D03*
X488950Y431800D02*
D03*
Y457200D02*
D03*
X575310Y397510D02*
D03*
X527050Y370840D02*
D03*
X557530Y368300D02*
D03*
X552450Y354330D02*
D03*
X534670Y370840D02*
D03*
X670560Y223520D02*
D03*
X668528Y233680D02*
D03*
X654050Y171450D02*
D03*
X706120Y91440D02*
D03*
X469900Y228600D02*
D03*
X501650Y63500D02*
D03*
X488950Y114300D02*
D03*
Y82550D02*
D03*
X469900Y128270D02*
D03*
X481330D02*
D03*
X368300Y125730D02*
D03*
X466090Y158750D02*
D03*
X474980Y222250D02*
D03*
X490220Y227330D02*
D03*
X487680Y267970D02*
D03*
X513581Y236721D02*
D03*
X487680Y288290D02*
D03*
X490373Y171450D02*
D03*
X511810D02*
D03*
X476250Y158750D02*
D03*
Y171450D02*
D03*
X349250Y100330D02*
D03*
Y92710D02*
D03*
X487680Y147320D02*
D03*
X637540Y370840D02*
D03*
X697230Y209550D02*
D03*
X323850Y241300D02*
D03*
X290830Y251460D02*
D03*
X289560Y223520D02*
D03*
X349250Y342900D02*
D03*
Y374650D02*
D03*
X629920Y279400D02*
D03*
X603250Y309880D02*
D03*
Y318770D02*
D03*
X589280Y353060D02*
D03*
X603250Y360680D02*
D03*
X581660Y242570D02*
D03*
X424180Y162560D02*
D03*
X544830Y147320D02*
D03*
X532130Y168910D02*
D03*
X543560Y189230D02*
D03*
X406400Y120650D02*
D03*
X572770Y62230D02*
D03*
X562610Y59690D02*
D03*
X610870Y69850D02*
D03*
X266700Y463550D02*
D03*
Y450850D02*
D03*
X299720Y467360D02*
D03*
X325120Y429260D02*
D03*
X320040Y467360D02*
D03*
X228600Y463550D02*
D03*
X601980Y203200D02*
D03*
X469900Y317500D02*
D03*
X615950Y31750D02*
D03*
X577850D02*
D03*
X488950Y63500D02*
D03*
X203200Y107950D02*
D03*
X120650Y120650D02*
D03*
X152400Y107950D02*
D03*
X153546Y69396D02*
D03*
X273050Y260350D02*
D03*
Y228600D02*
D03*
Y196850D02*
D03*
Y165100D02*
D03*
Y133350D02*
D03*
X603250Y247650D02*
D03*
X539750Y444500D02*
D03*
Y431800D02*
D03*
Y419100D02*
D03*
X508000Y431800D02*
D03*
Y444500D02*
D03*
Y457200D02*
D03*
X469900D02*
D03*
Y444500D02*
D03*
Y431800D02*
D03*
X368300Y349250D02*
D03*
Y361950D02*
D03*
Y374650D02*
D03*
X330200Y387350D02*
D03*
Y355600D02*
D03*
Y342900D02*
D03*
X209550Y381000D02*
D03*
X171450D02*
D03*
X50800Y342900D02*
D03*
Y273050D02*
D03*
X44450Y171450D02*
D03*
X63500Y95250D02*
D03*
X57150Y12700D02*
D03*
X12700Y69850D02*
D03*
Y190500D02*
D03*
Y304800D02*
D03*
X44450Y444500D02*
D03*
X25400Y400050D02*
D03*
X273050Y292100D02*
D03*
Y330200D02*
D03*
Y381000D02*
D03*
X579120Y108458D02*
D03*
X469900Y342900D02*
D03*
X574040Y203200D02*
D03*
X412750Y400050D02*
D03*
X419100Y431800D02*
D03*
Y450850D02*
D03*
X615950Y209550D02*
D03*
X711200Y187960D02*
D03*
X535940Y68580D02*
D03*
X525780D02*
D03*
X535940Y58420D02*
D03*
X525780D02*
D03*
X589280Y360680D02*
D03*
X657860Y370840D02*
D03*
X693420Y172720D02*
D03*
X604520Y294482D02*
D03*
X596900Y294370D02*
D03*
X601980Y339090D02*
D03*
X613410D02*
D03*
X590550D02*
D03*
X622300Y336550D02*
D03*
X624840Y185420D02*
D03*
X657860Y141540D02*
D03*
X601980Y226060D02*
D03*
X581660Y91440D02*
D03*
X693420Y129540D02*
D03*
X566420Y182880D02*
D03*
X574040Y226060D02*
D03*
X624840Y101600D02*
D03*
X691200Y160350D02*
D03*
X271780Y426720D02*
D03*
X228600Y438150D02*
D03*
X215900Y425450D02*
D03*
X190500D02*
D03*
X139700Y438150D02*
D03*
X152400Y450850D02*
D03*
X247650Y463550D02*
D03*
X228600Y450850D02*
D03*
X577850Y120650D02*
D03*
X424180Y153670D02*
D03*
X222250Y31750D02*
D03*
Y57150D02*
D03*
X622300Y288290D02*
D03*
X632460D02*
D03*
X642620D02*
D03*
X615950Y247650D02*
D03*
X406400Y146050D02*
D03*
X472440Y24130D02*
D03*
X520700Y22860D02*
D03*
X492760Y24130D02*
D03*
X586740Y69850D02*
D03*
X669271Y398018D02*
D03*
X666750Y406400D02*
D03*
X406400Y215900D02*
D03*
Y114300D02*
D03*
Y177800D02*
D03*
Y304800D02*
D03*
Y273050D02*
D03*
Y241300D02*
D03*
Y209550D02*
D03*
Y311150D02*
D03*
Y279400D02*
D03*
Y247650D02*
D03*
Y184150D02*
D03*
Y152400D02*
D03*
X323850Y304800D02*
D03*
Y273050D02*
D03*
Y209550D02*
D03*
Y177800D02*
D03*
Y146050D02*
D03*
Y114300D02*
D03*
Y82550D02*
D03*
X273050Y95250D02*
D03*
X260350D02*
D03*
X247650D02*
D03*
X234950D02*
D03*
X273050Y82550D02*
D03*
X260350D02*
D03*
X247650D02*
D03*
X234950D02*
D03*
X114300Y349250D02*
D03*
Y381000D02*
D03*
Y317500D02*
D03*
Y285750D02*
D03*
Y254000D02*
D03*
Y222250D02*
D03*
Y190500D02*
D03*
Y158750D02*
D03*
X704850Y374650D02*
D03*
X711200Y381000D02*
D03*
X355600Y222250D02*
D03*
X666750Y419100D02*
D03*
M02*
