G04*
G04 #@! TF.GenerationSoftware,Altium Limited,Altium Designer,24.2.2 (26)*
G04*
G04 Layer_Color=8388736*
%FSLAX44Y44*%
%MOMM*%
G71*
G04*
G04 #@! TF.SameCoordinates,45DB349C-2E0C-49CB-BE1D-D3AD2B71E69A*
G04*
G04*
G04 #@! TF.FilePolarity,Negative*
G04*
G01*
G75*
%ADD46R,0.6000X1.1500*%
%ADD47R,0.3000X1.1500*%
%ADD49R,1.6032X1.1532*%
%ADD50R,0.7532X1.3532*%
%ADD51R,2.3532X4.5032*%
%ADD52R,1.3732X2.0032*%
%ADD53C,1.7272*%
%ADD54R,1.5032X1.1232*%
%ADD55R,0.6032X1.4032*%
%ADD56R,1.0532X1.2032*%
%ADD57R,1.1032X1.2032*%
%ADD58R,1.7532X2.5532*%
%ADD59R,1.4232X0.6032*%
%ADD60R,0.8532X1.7282*%
%ADD61R,1.0332X1.1432*%
%ADD62R,11.1032X9.4032*%
%ADD63R,1.2032X3.5032*%
%ADD64R,1.1432X1.0332*%
%ADD65R,4.3032X4.3032*%
%ADD66R,2.3532X1.7032*%
%ADD67R,2.3032X1.7032*%
%ADD68R,1.2032X1.1032*%
%ADD69R,1.4532X1.2032*%
%ADD70R,2.3532X2.4032*%
%ADD71R,0.9032X0.8532*%
%ADD72R,0.9032X1.2032*%
%ADD73R,0.9032X0.8032*%
%ADD74R,2.4032X2.3532*%
%ADD75R,1.3532X0.7532*%
%ADD76R,1.1532X1.6032*%
%ADD77R,1.2532X3.9532*%
%ADD78R,10.7032X8.5032*%
%ADD79R,1.1132X1.5932*%
%ADD80R,0.8532X0.9032*%
%ADD81R,1.5932X1.1132*%
%ADD82C,5.0932*%
%ADD83C,1.8532*%
%ADD84R,1.8532X1.8532*%
%ADD85C,5.2032*%
%ADD86C,0.6500*%
G04:AMPARAMS|DCode=87|XSize=1mm|YSize=2.1mm|CornerRadius=0.5mm|HoleSize=0mm|Usage=FLASHONLY|Rotation=0.000|XOffset=0mm|YOffset=0mm|HoleType=Round|Shape=RoundedRectangle|*
%AMROUNDEDRECTD87*
21,1,1.0000,1.1000,0,0,0.0*
21,1,0.0000,2.1000,0,0,0.0*
1,1,1.0000,0.0000,-0.5500*
1,1,1.0000,0.0000,-0.5500*
1,1,1.0000,0.0000,0.5500*
1,1,1.0000,0.0000,0.5500*
%
%ADD87ROUNDEDRECTD87*%
G04:AMPARAMS|DCode=88|XSize=1mm|YSize=1.8mm|CornerRadius=0.5mm|HoleSize=0mm|Usage=FLASHONLY|Rotation=0.000|XOffset=0mm|YOffset=0mm|HoleType=Round|Shape=RoundedRectangle|*
%AMROUNDEDRECTD88*
21,1,1.0000,0.8000,0,0,0.0*
21,1,0.0000,1.8000,0,0,0.0*
1,1,1.0000,0.0000,-0.4000*
1,1,1.0000,0.0000,-0.4000*
1,1,1.0000,0.0000,0.4000*
1,1,1.0000,0.0000,0.4000*
%
%ADD88ROUNDEDRECTD88*%
%ADD89C,2.2352*%
%ADD90C,0.6604*%
D46*
X628900Y80350D02*
D03*
X564900D02*
D03*
X620900D02*
D03*
X572900D02*
D03*
D47*
X614400D02*
D03*
X609400D02*
D03*
X604400D02*
D03*
X599400D02*
D03*
X594400D02*
D03*
X589400D02*
D03*
X584400D02*
D03*
X579400D02*
D03*
D49*
X641350Y104300D02*
D03*
Y124300D02*
D03*
D50*
Y142750D02*
D03*
Y158750D02*
D03*
D51*
X349250Y275500D02*
D03*
Y359500D02*
D03*
X488950Y364400D02*
D03*
Y448400D02*
D03*
D52*
X271050Y406400D02*
D03*
X300450D02*
D03*
D53*
X323850Y31750D02*
D03*
Y57150D02*
D03*
X414020Y342900D02*
D03*
X427990Y372110D02*
D03*
D54*
X390550Y381000D02*
D03*
X409550D02*
D03*
D55*
X393550Y412750D02*
D03*
X400050D02*
D03*
X406550D02*
D03*
X393550Y431750D02*
D03*
X400050D02*
D03*
X406550D02*
D03*
D56*
X204350Y412750D02*
D03*
X189350D02*
D03*
D57*
X150750D02*
D03*
X166750D02*
D03*
X150750Y438150D02*
D03*
X166750D02*
D03*
X188850D02*
D03*
X204850D02*
D03*
X506350Y215900D02*
D03*
X522350D02*
D03*
X506350Y190500D02*
D03*
X522350D02*
D03*
X328550Y196850D02*
D03*
X344550D02*
D03*
Y222250D02*
D03*
X328550D02*
D03*
D58*
X247650Y403950D02*
D03*
Y446950D02*
D03*
D59*
X285350Y447900D02*
D03*
Y441400D02*
D03*
Y434900D02*
D03*
Y428400D02*
D03*
X311550D02*
D03*
Y434900D02*
D03*
Y441400D02*
D03*
Y447900D02*
D03*
D60*
X374650Y402140D02*
D03*
X361950D02*
D03*
X349250D02*
D03*
X336550D02*
D03*
Y456380D02*
D03*
X349250D02*
D03*
X361950D02*
D03*
X374650D02*
D03*
D61*
X393450Y454000D02*
D03*
X406650D02*
D03*
X501900Y158750D02*
D03*
X488700D02*
D03*
D62*
X603250Y421300D02*
D03*
D63*
X637250Y315300D02*
D03*
X620250D02*
D03*
X603250D02*
D03*
X586250D02*
D03*
X569250D02*
D03*
D64*
X542290Y342650D02*
D03*
Y355850D02*
D03*
X565150Y101350D02*
D03*
Y114550D02*
D03*
X368300Y159000D02*
D03*
Y145800D02*
D03*
D65*
X530100Y285750D02*
D03*
X435100D02*
D03*
D66*
X549300Y209550D02*
D03*
X631800D02*
D03*
D67*
X629200Y276317D02*
D03*
X587200D02*
D03*
D68*
X660400Y328550D02*
D03*
Y344550D02*
D03*
D69*
X706120Y162680D02*
D03*
Y177680D02*
D03*
Y144660D02*
D03*
Y129660D02*
D03*
D70*
X673100Y155350D02*
D03*
Y111350D02*
D03*
D71*
X539750Y114700D02*
D03*
Y101200D02*
D03*
X482600Y25000D02*
D03*
Y38500D02*
D03*
D72*
X606900Y100450D02*
D03*
D73*
Y117450D02*
D03*
X586900D02*
D03*
Y98450D02*
D03*
D74*
X612550Y158750D02*
D03*
X568550D02*
D03*
X390750Y208280D02*
D03*
X434750D02*
D03*
D75*
X284100Y31750D02*
D03*
X300100D02*
D03*
Y57150D02*
D03*
X284100D02*
D03*
D76*
X257650D02*
D03*
X237650D02*
D03*
X257650Y31750D02*
D03*
X237650D02*
D03*
D77*
X438150Y165600D02*
D03*
X387350D02*
D03*
D78*
X412750Y60600D02*
D03*
D79*
X306650Y184150D02*
D03*
X290250D02*
D03*
Y209550D02*
D03*
X306650D02*
D03*
D80*
X305200Y234950D02*
D03*
X291700D02*
D03*
D81*
X508000Y23550D02*
D03*
Y39950D02*
D03*
X533400Y23550D02*
D03*
Y39950D02*
D03*
D82*
X100100Y48800D02*
D03*
Y433800D02*
D03*
D83*
X685800Y234950D02*
D03*
Y260350D02*
D03*
Y285750D02*
D03*
Y311150D02*
D03*
D84*
Y336550D02*
D03*
D85*
X692150Y438150D02*
D03*
Y44450D02*
D03*
X184150D02*
D03*
D86*
X625800Y69600D02*
D03*
X568000D02*
D03*
D87*
X640100Y74600D02*
D03*
X553700D02*
D03*
D88*
X640100Y32800D02*
D03*
X553700D02*
D03*
D89*
X190100Y136300D02*
D03*
Y196300D02*
D03*
Y226300D02*
D03*
Y286300D02*
D03*
X220100Y136300D02*
D03*
Y196300D02*
D03*
Y226300D02*
D03*
Y286300D02*
D03*
Y316300D02*
D03*
X245100Y121300D02*
D03*
Y151300D02*
D03*
X220100Y166300D02*
D03*
X190100D02*
D03*
X165100Y151300D02*
D03*
X220100Y256300D02*
D03*
X245100Y181300D02*
D03*
X165100D02*
D03*
X245100Y211300D02*
D03*
X165100D02*
D03*
Y241300D02*
D03*
X190100Y256300D02*
D03*
X165100Y121300D02*
D03*
X220100Y346300D02*
D03*
X245100Y361300D02*
D03*
Y331300D02*
D03*
Y301300D02*
D03*
Y271300D02*
D03*
Y241300D02*
D03*
X190100Y346300D02*
D03*
Y316300D02*
D03*
X165100Y361300D02*
D03*
Y331300D02*
D03*
Y301300D02*
D03*
Y271300D02*
D03*
D90*
X440690Y162560D02*
D03*
X450850D02*
D03*
X431800Y165100D02*
D03*
X603250Y387350D02*
D03*
X590550D02*
D03*
X603250Y419100D02*
D03*
X488950Y431800D02*
D03*
Y457200D02*
D03*
X575310Y397510D02*
D03*
X527050Y370840D02*
D03*
X557530Y368300D02*
D03*
X552450Y354330D02*
D03*
X534670Y370840D02*
D03*
X670560Y223520D02*
D03*
X668528Y233680D02*
D03*
X654050Y171450D02*
D03*
X706120Y91440D02*
D03*
X469900Y228600D02*
D03*
X501650Y63500D02*
D03*
X488950Y114300D02*
D03*
Y82550D02*
D03*
X469900Y128270D02*
D03*
X481330D02*
D03*
X368300Y125730D02*
D03*
X466090Y158750D02*
D03*
X474980Y222250D02*
D03*
X490220Y227330D02*
D03*
X487680Y267970D02*
D03*
X513581Y236721D02*
D03*
X487680Y288290D02*
D03*
X490373Y171450D02*
D03*
X511810D02*
D03*
X476250Y158750D02*
D03*
Y171450D02*
D03*
X349250Y100330D02*
D03*
Y92710D02*
D03*
X487680Y147320D02*
D03*
X637540Y370840D02*
D03*
X697230Y209550D02*
D03*
X323850Y241300D02*
D03*
X290830Y251460D02*
D03*
X289560Y223520D02*
D03*
X349250Y342900D02*
D03*
Y374650D02*
D03*
X629920Y279400D02*
D03*
X603250Y309880D02*
D03*
Y318770D02*
D03*
X589280Y353060D02*
D03*
X603250Y360680D02*
D03*
X581660Y242570D02*
D03*
X424180Y162560D02*
D03*
X544830Y147320D02*
D03*
X532130Y168910D02*
D03*
X543560Y189230D02*
D03*
X406400Y120650D02*
D03*
X572770Y62230D02*
D03*
X562610Y59690D02*
D03*
X610870Y69850D02*
D03*
X266700Y463550D02*
D03*
Y450850D02*
D03*
X299720Y467360D02*
D03*
X325120Y429260D02*
D03*
X320040Y467360D02*
D03*
X228600Y463550D02*
D03*
X601980Y203200D02*
D03*
X469900Y317500D02*
D03*
X615950Y31750D02*
D03*
X577850D02*
D03*
X488950Y63500D02*
D03*
X203200Y107950D02*
D03*
X120650Y120650D02*
D03*
X152400Y107950D02*
D03*
X153546Y69396D02*
D03*
X273050Y260350D02*
D03*
Y228600D02*
D03*
Y196850D02*
D03*
Y165100D02*
D03*
Y133350D02*
D03*
X603250Y247650D02*
D03*
X539750Y444500D02*
D03*
Y431800D02*
D03*
Y419100D02*
D03*
X508000Y431800D02*
D03*
Y444500D02*
D03*
Y457200D02*
D03*
X469900D02*
D03*
Y444500D02*
D03*
Y431800D02*
D03*
X368300Y349250D02*
D03*
Y361950D02*
D03*
Y374650D02*
D03*
X330200Y387350D02*
D03*
Y355600D02*
D03*
Y342900D02*
D03*
X209550Y381000D02*
D03*
X171450D02*
D03*
X50800Y342900D02*
D03*
Y273050D02*
D03*
X44450Y171450D02*
D03*
X63500Y95250D02*
D03*
X57150Y12700D02*
D03*
X12700Y69850D02*
D03*
Y190500D02*
D03*
Y304800D02*
D03*
X44450Y444500D02*
D03*
X25400Y400050D02*
D03*
X273050Y292100D02*
D03*
Y330200D02*
D03*
Y381000D02*
D03*
X579120Y108458D02*
D03*
X469900Y342900D02*
D03*
X574040Y203200D02*
D03*
X412750Y400050D02*
D03*
X419100Y431800D02*
D03*
Y450850D02*
D03*
X615950Y209550D02*
D03*
X711200Y187960D02*
D03*
X535940Y68580D02*
D03*
X525780D02*
D03*
X535940Y58420D02*
D03*
X525780D02*
D03*
X589280Y360680D02*
D03*
X657860Y370840D02*
D03*
X693420Y172720D02*
D03*
X604520Y294482D02*
D03*
X596900Y294370D02*
D03*
X601980Y339090D02*
D03*
X613410D02*
D03*
X590550D02*
D03*
X622300Y336550D02*
D03*
X624840Y185420D02*
D03*
X657860Y141540D02*
D03*
X601980Y226060D02*
D03*
X581660Y91440D02*
D03*
X693420Y129540D02*
D03*
X566420Y182880D02*
D03*
X574040Y226060D02*
D03*
X624840Y101600D02*
D03*
X691200Y160350D02*
D03*
X271780Y426720D02*
D03*
X228600Y438150D02*
D03*
X215900Y425450D02*
D03*
X190500D02*
D03*
X139700Y438150D02*
D03*
X152400Y450850D02*
D03*
X247650Y463550D02*
D03*
X228600Y450850D02*
D03*
X577850Y120650D02*
D03*
X424180Y153670D02*
D03*
X222250Y31750D02*
D03*
Y57150D02*
D03*
X622300Y288290D02*
D03*
X632460D02*
D03*
X642620D02*
D03*
X615950Y247650D02*
D03*
X406400Y146050D02*
D03*
X472440Y24130D02*
D03*
X520700Y22860D02*
D03*
X492760Y24130D02*
D03*
X586740Y69850D02*
D03*
X669271Y398018D02*
D03*
X666750Y406400D02*
D03*
X406400Y215900D02*
D03*
Y114300D02*
D03*
Y177800D02*
D03*
Y304800D02*
D03*
Y273050D02*
D03*
Y241300D02*
D03*
Y209550D02*
D03*
Y311150D02*
D03*
Y279400D02*
D03*
Y247650D02*
D03*
Y184150D02*
D03*
Y152400D02*
D03*
X323850Y304800D02*
D03*
Y273050D02*
D03*
Y209550D02*
D03*
Y177800D02*
D03*
Y146050D02*
D03*
Y114300D02*
D03*
Y82550D02*
D03*
X273050Y95250D02*
D03*
X260350D02*
D03*
X247650D02*
D03*
X234950D02*
D03*
X273050Y82550D02*
D03*
X260350D02*
D03*
X247650D02*
D03*
X234950D02*
D03*
X114300Y349250D02*
D03*
Y381000D02*
D03*
Y317500D02*
D03*
Y285750D02*
D03*
Y254000D02*
D03*
Y222250D02*
D03*
Y190500D02*
D03*
Y158750D02*
D03*
X704850Y374650D02*
D03*
X711200Y381000D02*
D03*
X355600Y222250D02*
D03*
X666750Y419100D02*
D03*
M02*
