G04*
G04 #@! TF.GenerationSoftware,Altium Limited,Altium Designer,24.2.2 (26)*
G04*
G04 Layer_Color=16711935*
%FSLAX44Y44*%
%MOMM*%
G71*
G04*
G04 #@! TF.SameCoordinates,45DB349C-2E0C-49CB-BE1D-D3AD2B71E69A*
G04*
G04*
G04 #@! TF.FilePolarity,Negative*
G04*
G01*
G75*
%ADD53C,1.7272*%
%ADD57R,1.1032X1.2032*%
%ADD61R,1.0332X1.1432*%
%ADD64R,1.1432X1.0332*%
%ADD68R,1.2032X1.1032*%
%ADD71R,0.9032X0.8532*%
%ADD82C,5.0932*%
%ADD83C,1.8532*%
%ADD84R,1.8532X1.8532*%
%ADD85C,5.2032*%
%ADD86C,0.6500*%
G04:AMPARAMS|DCode=87|XSize=1mm|YSize=2.1mm|CornerRadius=0.5mm|HoleSize=0mm|Usage=FLASHONLY|Rotation=0.000|XOffset=0mm|YOffset=0mm|HoleType=Round|Shape=RoundedRectangle|*
%AMROUNDEDRECTD87*
21,1,1.0000,1.1000,0,0,0.0*
21,1,0.0000,2.1000,0,0,0.0*
1,1,1.0000,0.0000,-0.5500*
1,1,1.0000,0.0000,-0.5500*
1,1,1.0000,0.0000,0.5500*
1,1,1.0000,0.0000,0.5500*
%
%ADD87ROUNDEDRECTD87*%
G04:AMPARAMS|DCode=88|XSize=1mm|YSize=1.8mm|CornerRadius=0.5mm|HoleSize=0mm|Usage=FLASHONLY|Rotation=0.000|XOffset=0mm|YOffset=0mm|HoleType=Round|Shape=RoundedRectangle|*
%AMROUNDEDRECTD88*
21,1,1.0000,0.8000,0,0,0.0*
21,1,0.0000,1.8000,0,0,0.0*
1,1,1.0000,0.0000,-0.4000*
1,1,1.0000,0.0000,-0.4000*
1,1,1.0000,0.0000,0.4000*
1,1,1.0000,0.0000,0.4000*
%
%ADD88ROUNDEDRECTD88*%
%ADD89C,2.2352*%
%ADD90C,0.6604*%
%ADD108R,1.4032X1.6532*%
%ADD109R,2.1032X2.6032*%
%ADD110O,2.0032X0.5032*%
%ADD111O,0.5032X2.0032*%
%ADD112R,0.8532X1.1032*%
%ADD113R,1.1032X0.8532*%
%ADD114R,1.7282X0.8532*%
%ADD115R,1.2782X0.7032*%
D53*
X444500Y82550D02*
D03*
Y114300D02*
D03*
Y146050D02*
D03*
Y304800D02*
D03*
Y273050D02*
D03*
Y241300D02*
D03*
Y209550D02*
D03*
Y177800D02*
D03*
X74930Y130810D02*
D03*
X513080Y83820D02*
D03*
D57*
X357250Y304800D02*
D03*
X341250D02*
D03*
X357250Y273050D02*
D03*
X341250D02*
D03*
X357250Y241300D02*
D03*
X341250D02*
D03*
X357250Y209550D02*
D03*
X341250D02*
D03*
X357250Y177800D02*
D03*
X341250D02*
D03*
X357250Y146050D02*
D03*
X341250D02*
D03*
X357250Y114300D02*
D03*
X341250D02*
D03*
Y82550D02*
D03*
X357250D02*
D03*
X395350Y304800D02*
D03*
X379350D02*
D03*
X395350Y273050D02*
D03*
X379350D02*
D03*
X395350Y241300D02*
D03*
X379350D02*
D03*
X395350Y209550D02*
D03*
X379350D02*
D03*
X395350Y177800D02*
D03*
X379350D02*
D03*
Y82550D02*
D03*
X395350D02*
D03*
X395350Y114300D02*
D03*
X379350D02*
D03*
X395350Y146050D02*
D03*
X379350D02*
D03*
D61*
X418850Y304800D02*
D03*
X432050D02*
D03*
X418850Y273050D02*
D03*
X432050D02*
D03*
X418850Y241300D02*
D03*
X432050D02*
D03*
X418850Y209550D02*
D03*
X432050D02*
D03*
X418850Y177800D02*
D03*
X432050D02*
D03*
X418850Y146050D02*
D03*
X432050D02*
D03*
X418850Y114300D02*
D03*
X432050D02*
D03*
Y82550D02*
D03*
X418850D02*
D03*
X495050Y260350D02*
D03*
X508250D02*
D03*
X647950Y139700D02*
D03*
X634750D02*
D03*
X679700Y158750D02*
D03*
X666500D02*
D03*
X660650Y273050D02*
D03*
X647450D02*
D03*
X641600Y298450D02*
D03*
X628400D02*
D03*
X495050Y279400D02*
D03*
X508250D02*
D03*
D64*
X501650Y171200D02*
D03*
Y184400D02*
D03*
X565150Y126750D02*
D03*
Y139950D02*
D03*
X615950Y114550D02*
D03*
Y101350D02*
D03*
X704850Y114550D02*
D03*
Y101350D02*
D03*
X647700Y374900D02*
D03*
Y361700D02*
D03*
D68*
X590550Y135000D02*
D03*
Y119000D02*
D03*
X594360Y87250D02*
D03*
Y103250D02*
D03*
X685800Y213740D02*
D03*
Y197740D02*
D03*
X668020D02*
D03*
Y213740D02*
D03*
X584200Y312800D02*
D03*
Y296800D02*
D03*
X568960Y312800D02*
D03*
Y296800D02*
D03*
D71*
X546100Y140100D02*
D03*
Y126600D02*
D03*
X101600Y159150D02*
D03*
Y145650D02*
D03*
Y190900D02*
D03*
Y177400D02*
D03*
Y222650D02*
D03*
Y209150D02*
D03*
Y254400D02*
D03*
Y240900D02*
D03*
Y272650D02*
D03*
Y286150D02*
D03*
Y304400D02*
D03*
Y317900D02*
D03*
Y336150D02*
D03*
Y349650D02*
D03*
Y367900D02*
D03*
Y381400D02*
D03*
D82*
X100100Y48800D02*
D03*
Y433800D02*
D03*
D83*
X685800Y234950D02*
D03*
Y260350D02*
D03*
Y285750D02*
D03*
Y311150D02*
D03*
D84*
Y336550D02*
D03*
D85*
X692150Y438150D02*
D03*
Y44450D02*
D03*
X184150D02*
D03*
D86*
X625800Y69600D02*
D03*
X568000D02*
D03*
D87*
X640100Y74600D02*
D03*
X553700D02*
D03*
D88*
X640100Y32800D02*
D03*
X553700D02*
D03*
D89*
X190100Y136300D02*
D03*
Y196300D02*
D03*
Y226300D02*
D03*
Y286300D02*
D03*
X220100Y136300D02*
D03*
Y196300D02*
D03*
Y226300D02*
D03*
Y286300D02*
D03*
Y316300D02*
D03*
X245100Y121300D02*
D03*
Y151300D02*
D03*
X220100Y166300D02*
D03*
X190100D02*
D03*
X165100Y151300D02*
D03*
X220100Y256300D02*
D03*
X245100Y181300D02*
D03*
X165100D02*
D03*
X245100Y211300D02*
D03*
X165100D02*
D03*
Y241300D02*
D03*
X190100Y256300D02*
D03*
X165100Y121300D02*
D03*
X220100Y346300D02*
D03*
X245100Y361300D02*
D03*
Y331300D02*
D03*
Y301300D02*
D03*
Y271300D02*
D03*
Y241300D02*
D03*
X190100Y346300D02*
D03*
Y316300D02*
D03*
X165100Y361300D02*
D03*
Y331300D02*
D03*
Y301300D02*
D03*
Y271300D02*
D03*
D90*
X440690Y162560D02*
D03*
X450850D02*
D03*
X431800Y165100D02*
D03*
X603250Y387350D02*
D03*
X590550D02*
D03*
X603250Y419100D02*
D03*
X488950Y431800D02*
D03*
Y457200D02*
D03*
X575310Y397510D02*
D03*
X527050Y370840D02*
D03*
X557530Y368300D02*
D03*
X552450Y354330D02*
D03*
X534670Y370840D02*
D03*
X670560Y223520D02*
D03*
X668528Y233680D02*
D03*
X654050Y171450D02*
D03*
X706120Y91440D02*
D03*
X469900Y228600D02*
D03*
X501650Y63500D02*
D03*
X488950Y114300D02*
D03*
Y82550D02*
D03*
X469900Y128270D02*
D03*
X481330D02*
D03*
X368300Y125730D02*
D03*
X466090Y158750D02*
D03*
X474980Y222250D02*
D03*
X490220Y227330D02*
D03*
X487680Y267970D02*
D03*
X513581Y236721D02*
D03*
X487680Y288290D02*
D03*
X490373Y171450D02*
D03*
X511810D02*
D03*
X476250Y158750D02*
D03*
Y171450D02*
D03*
X349250Y100330D02*
D03*
Y92710D02*
D03*
X487680Y147320D02*
D03*
X637540Y370840D02*
D03*
X697230Y209550D02*
D03*
X323850Y241300D02*
D03*
X290830Y251460D02*
D03*
X289560Y223520D02*
D03*
X349250Y342900D02*
D03*
Y374650D02*
D03*
X629920Y279400D02*
D03*
X603250Y309880D02*
D03*
Y318770D02*
D03*
X589280Y353060D02*
D03*
X603250Y360680D02*
D03*
X581660Y242570D02*
D03*
X424180Y162560D02*
D03*
X544830Y147320D02*
D03*
X532130Y168910D02*
D03*
X543560Y189230D02*
D03*
X406400Y120650D02*
D03*
X572770Y62230D02*
D03*
X562610Y59690D02*
D03*
X610870Y69850D02*
D03*
X266700Y463550D02*
D03*
Y450850D02*
D03*
X299720Y467360D02*
D03*
X325120Y429260D02*
D03*
X320040Y467360D02*
D03*
X228600Y463550D02*
D03*
X601980Y203200D02*
D03*
X469900Y317500D02*
D03*
X615950Y31750D02*
D03*
X577850D02*
D03*
X488950Y63500D02*
D03*
X203200Y107950D02*
D03*
X120650Y120650D02*
D03*
X152400Y107950D02*
D03*
X153546Y69396D02*
D03*
X273050Y260350D02*
D03*
Y228600D02*
D03*
Y196850D02*
D03*
Y165100D02*
D03*
Y133350D02*
D03*
X603250Y247650D02*
D03*
X539750Y444500D02*
D03*
Y431800D02*
D03*
Y419100D02*
D03*
X508000Y431800D02*
D03*
Y444500D02*
D03*
Y457200D02*
D03*
X469900D02*
D03*
Y444500D02*
D03*
Y431800D02*
D03*
X368300Y349250D02*
D03*
Y361950D02*
D03*
Y374650D02*
D03*
X330200Y387350D02*
D03*
Y355600D02*
D03*
Y342900D02*
D03*
X209550Y381000D02*
D03*
X171450D02*
D03*
X50800Y342900D02*
D03*
Y273050D02*
D03*
X44450Y171450D02*
D03*
X63500Y95250D02*
D03*
X57150Y12700D02*
D03*
X12700Y69850D02*
D03*
Y190500D02*
D03*
Y304800D02*
D03*
X44450Y444500D02*
D03*
X25400Y400050D02*
D03*
X273050Y292100D02*
D03*
Y330200D02*
D03*
Y381000D02*
D03*
X579120Y108458D02*
D03*
X469900Y342900D02*
D03*
X574040Y203200D02*
D03*
X412750Y400050D02*
D03*
X419100Y431800D02*
D03*
Y450850D02*
D03*
X615950Y209550D02*
D03*
X711200Y187960D02*
D03*
X535940Y68580D02*
D03*
X525780D02*
D03*
X535940Y58420D02*
D03*
X525780D02*
D03*
X589280Y360680D02*
D03*
X657860Y370840D02*
D03*
X693420Y172720D02*
D03*
X604520Y294482D02*
D03*
X596900Y294370D02*
D03*
X601980Y339090D02*
D03*
X613410D02*
D03*
X590550D02*
D03*
X622300Y336550D02*
D03*
X624840Y185420D02*
D03*
X657860Y141540D02*
D03*
X601980Y226060D02*
D03*
X581660Y91440D02*
D03*
X693420Y129540D02*
D03*
X566420Y182880D02*
D03*
X574040Y226060D02*
D03*
X624840Y101600D02*
D03*
X691200Y160350D02*
D03*
X271780Y426720D02*
D03*
X228600Y438150D02*
D03*
X215900Y425450D02*
D03*
X190500D02*
D03*
X139700Y438150D02*
D03*
X152400Y450850D02*
D03*
X247650Y463550D02*
D03*
X228600Y450850D02*
D03*
X577850Y120650D02*
D03*
X424180Y153670D02*
D03*
X222250Y31750D02*
D03*
Y57150D02*
D03*
X622300Y288290D02*
D03*
X632460D02*
D03*
X642620D02*
D03*
X615950Y247650D02*
D03*
X406400Y146050D02*
D03*
X472440Y24130D02*
D03*
X520700Y22860D02*
D03*
X492760Y24130D02*
D03*
X586740Y69850D02*
D03*
X669271Y398018D02*
D03*
X666750Y406400D02*
D03*
X406400Y215900D02*
D03*
Y114300D02*
D03*
Y177800D02*
D03*
Y304800D02*
D03*
Y273050D02*
D03*
Y241300D02*
D03*
Y209550D02*
D03*
Y311150D02*
D03*
Y279400D02*
D03*
Y247650D02*
D03*
Y184150D02*
D03*
Y152400D02*
D03*
X323850Y304800D02*
D03*
Y273050D02*
D03*
Y209550D02*
D03*
Y177800D02*
D03*
Y146050D02*
D03*
Y114300D02*
D03*
Y82550D02*
D03*
X273050Y95250D02*
D03*
X260350D02*
D03*
X247650D02*
D03*
X234950D02*
D03*
X273050Y82550D02*
D03*
X260350D02*
D03*
X247650D02*
D03*
X234950D02*
D03*
X114300Y349250D02*
D03*
Y381000D02*
D03*
Y317500D02*
D03*
Y285750D02*
D03*
Y254000D02*
D03*
Y222250D02*
D03*
Y190500D02*
D03*
Y158750D02*
D03*
X704850Y374650D02*
D03*
X711200Y381000D02*
D03*
X355600Y222250D02*
D03*
X666750Y419100D02*
D03*
D108*
X550300Y107950D02*
D03*
X567300D02*
D03*
D109*
X639900D02*
D03*
X680900D02*
D03*
D110*
X639700Y178400D02*
D03*
Y183400D02*
D03*
Y188400D02*
D03*
Y193400D02*
D03*
Y198400D02*
D03*
Y203400D02*
D03*
Y208400D02*
D03*
Y213400D02*
D03*
Y218400D02*
D03*
Y223400D02*
D03*
Y228400D02*
D03*
Y233400D02*
D03*
Y238400D02*
D03*
Y243400D02*
D03*
Y248400D02*
D03*
Y253400D02*
D03*
X528700D02*
D03*
Y248400D02*
D03*
Y243400D02*
D03*
Y238400D02*
D03*
Y233400D02*
D03*
Y228400D02*
D03*
Y223400D02*
D03*
Y218400D02*
D03*
Y213400D02*
D03*
Y208400D02*
D03*
Y203400D02*
D03*
Y198400D02*
D03*
Y193400D02*
D03*
Y188400D02*
D03*
Y183400D02*
D03*
Y178400D02*
D03*
D111*
X621700Y271400D02*
D03*
X616700D02*
D03*
X611700D02*
D03*
X606700D02*
D03*
X601700D02*
D03*
X596700D02*
D03*
X591700D02*
D03*
X586700D02*
D03*
X581700D02*
D03*
X576700D02*
D03*
X571700D02*
D03*
X566700D02*
D03*
X561700D02*
D03*
X556700D02*
D03*
X551700D02*
D03*
X546700D02*
D03*
Y160400D02*
D03*
X551700D02*
D03*
X556700D02*
D03*
X561700D02*
D03*
X566700D02*
D03*
X571700D02*
D03*
X576700D02*
D03*
X581700D02*
D03*
X586700D02*
D03*
X591700D02*
D03*
X596700D02*
D03*
X601700D02*
D03*
X606700D02*
D03*
X611700D02*
D03*
X616700D02*
D03*
X621700D02*
D03*
D112*
X113400Y146050D02*
D03*
X127900D02*
D03*
X113400Y177800D02*
D03*
X127900D02*
D03*
X113400Y368300D02*
D03*
X127900D02*
D03*
X113400Y336550D02*
D03*
X127900D02*
D03*
X113400Y304800D02*
D03*
X127900D02*
D03*
X113400Y273050D02*
D03*
X127900D02*
D03*
X113400Y241300D02*
D03*
X127900D02*
D03*
X113400Y209550D02*
D03*
X127900D02*
D03*
D113*
X548640Y362320D02*
D03*
Y376820D02*
D03*
D114*
X569780Y387350D02*
D03*
Y374650D02*
D03*
Y361950D02*
D03*
Y349250D02*
D03*
X624020D02*
D03*
Y361950D02*
D03*
Y374650D02*
D03*
Y387350D02*
D03*
D115*
X310070Y241300D02*
D03*
X286830D02*
D03*
X310070Y146050D02*
D03*
X286830D02*
D03*
X310070Y82550D02*
D03*
X286830D02*
D03*
X310070Y114300D02*
D03*
X286830D02*
D03*
X310070Y177800D02*
D03*
X286830D02*
D03*
X310070Y209550D02*
D03*
X286830D02*
D03*
X310070Y273050D02*
D03*
X286830D02*
D03*
X310070Y304800D02*
D03*
X286830D02*
D03*
M02*
